<svg width="25" height="25" viewBox="0 0 25 25" fill="none" xmlns="http://www.w3.org/2000/svg">
<g clip-path="url(#clip0_27_162)">
<path d="M3.4965 14.567L3.49649 14.567L2.25713 7.55538C2.25711 7.55529 2.2571 7.5552 2.25708 7.55511L2.25704 7.55484L2.28531 7.54985L2.25278 7.52544M3.4965 14.567L2.28584 7.55024L2.36258 7.6078C2.3374 7.58891 2.31868 7.56759 2.30483 7.54684L2.42436 7.52544L2.50322 7.51133L2.42451 7.52524L2.30456 7.54644C2.29138 7.52661 2.28264 7.50733 2.27695 7.49124C2.26572 7.45948 2.2634 7.43238 2.26284 7.4172C2.26176 7.38784 2.26629 7.36526 2.26764 7.35861C2.26957 7.34913 2.27165 7.34185 2.27262 7.33854L2.27514 7.33053C2.27593 7.32819 2.27658 7.3264 2.27607 7.32784L2.27431 7.33277C2.27069 7.34309 2.26505 7.36018 2.26018 7.38212C2.25179 7.41994 2.24643 7.46873 2.25278 7.52544M3.4965 14.567C3.56424 14.9498 3.77841 15.3264 4.0687 15.676C4.3609 16.0279 4.74284 16.3677 5.17071 16.6777C5.98965 17.271 6.99982 17.7713 7.92827 18.0426C8.27459 18.8952 8.73585 19.6499 9.17718 20.2557M3.4965 14.567L9.17718 20.2557M2.25278 7.52544L2.05406 7.37639L2.39127 7.18923C4.68453 5.91634 7.27939 5.24336 9.8958 5.24336C9.9296 5.24336 9.96246 5.24489 9.99081 5.24642C10.5581 4.72662 11.2692 4.36468 12.0611 4.23828C12.6414 4.14551 13.2266 4.08835 13.8105 4.05318C13.492 3.74975 13.101 3.53975 12.6631 3.46954C11.7421 3.32279 10.8166 3.25 9.89541 3.25C6.94324 3.25 4.03033 3.99783 1.41833 5.44748C0.571458 5.91769 0.110919 6.90381 0.287288 7.90099L0.287293 7.90102L1.52675 14.9131L1.52675 14.9131C1.78624 16.3814 3.04416 17.7184 4.61661 18.699C6.14769 19.6538 7.91196 20.2294 9.17718 20.2557M2.25278 7.52544L9.17718 20.2557M10.0852 5.50078C10.0555 5.50041 10.0258 5.49876 9.99615 5.4971C9.96263 5.49523 9.92916 5.49336 9.8958 5.49336C7.40511 5.49336 4.93382 6.11338 2.73217 7.2883C2.71777 7.26183 2.69579 7.23271 2.6626 7.20782L2.51259 7.40781L10.0852 5.50078ZM10.0852 5.50078C10.6302 4.97461 11.3247 4.60898 12.1005 4.48516L10.0852 5.50078ZM4.72204 9.65131L4.72205 9.65136C4.84792 10.3626 5.52811 10.8386 6.24278 10.7131L4.72204 9.65131ZM4.72204 9.65131C4.7185 9.6313 4.71557 9.61125 4.71323 9.59111M4.72204 9.65131L4.71323 9.59111M12.7836 11.4603C12.7493 11.6538 12.7559 11.8388 12.7789 12.0102L12.826 12.3616L13.1412 12.1992C13.5105 12.0089 14.002 11.929 14.5255 12.0212L14.5256 12.0212C15.0489 12.113 15.4832 12.356 15.7651 12.6605L16.0062 12.9209L16.1702 12.6062C16.2498 12.4536 16.3194 12.2824 16.3537 12.0889L16.3537 12.0888C16.5274 11.1046 15.8688 10.1671 14.8833 9.99363C13.8979 9.82019 12.9578 10.4763 12.7836 11.4603ZM12.7836 11.4603L13.0298 11.5039L12.7836 11.4603C12.7836 11.4603 12.7836 11.4603 12.7836 11.4603ZM17.7074 12.3263C17.6732 12.5198 17.6797 12.7046 17.7022 12.8753L17.7487 13.2276L18.0646 13.0648C18.4339 12.8745 18.9255 12.7947 19.4489 12.8868L19.4491 12.8869C19.9724 12.9787 20.407 13.2217 20.6889 13.5261L20.9297 13.7862L21.0939 13.4721C21.1736 13.3196 21.2433 13.1484 21.2775 12.9545L21.2775 12.9544C21.4513 11.9701 20.7922 11.0327 19.8071 10.8593L19.807 10.8592C18.8217 10.6863 17.8816 11.3423 17.7074 12.3263ZM17.7074 12.3263L17.9536 12.3699M17.7074 12.3263C17.7074 12.3263 17.7074 12.3263 17.7074 12.3264L17.9536 12.3699M17.9536 12.3699C18.1036 11.5223 18.9138 10.9563 19.7638 11.1055C20.6134 11.2551 21.181 12.0633 21.0313 12.9109C21.0193 12.9793 21.0018 13.0451 20.9801 13.1086C21.0061 13.1341 21.0314 13.16 21.0558 13.1864L20.8724 13.3562L20.6508 13.2404C20.662 13.2191 20.6726 13.1978 20.6827 13.1765C20.3723 12.9173 19.9614 12.7229 19.4923 12.6406C19.0231 12.558 18.5704 12.6004 18.1899 12.7382C18.1921 12.7619 18.1948 12.7858 18.1979 12.8099L17.9501 12.8426L17.8356 12.6203C17.8678 12.6038 17.9006 12.5879 17.9339 12.5727C17.9354 12.5057 17.9415 12.4381 17.9536 12.3699ZM7.29439 9.13691C6.95837 9.39697 6.533 9.58708 6.05778 9.67045L7.29439 9.13691ZM7.29439 9.13691C7.29921 9.15695 7.30344 9.17713 7.30704 9.19747L7.29439 9.13691ZM4.71323 9.59111C5.11812 9.72084 5.58288 9.75406 6.05774 9.67046L4.71323 9.59111ZM23.5819 7.94125L23.5819 7.94126C24.4287 8.41107 24.8893 9.39713 24.7129 10.3948L23.4734 17.4069C23.1925 18.9957 21.7428 20.429 19.9996 21.4215C19.1355 21.9135 18.2154 22.2875 17.3638 22.5115C16.5079 22.7367 15.7405 22.8053 15.1747 22.7057L15.1746 22.7057C14.6088 22.6063 13.9113 22.28 13.1842 21.7765C12.4608 21.2755 11.7244 20.6102 11.0811 19.8531C9.7835 18.3259 8.91266 16.4846 9.19354 14.8959L10.433 7.88375L10.433 7.88369C10.609 6.88645 11.3801 6.11647 12.3372 5.96367L12.3372 5.96367C16.2097 5.34515 20.155 6.03949 23.5819 7.94125ZM12.499 14.7009L12.1072 14.2151L12.0553 14.837C11.8692 17.0637 13.4398 19.1099 15.7392 19.5142C18.0381 19.9185 20.2155 18.5323 20.8042 16.376L20.9687 15.7732L20.4338 16.0961C19.3961 16.7226 17.8759 17.0011 16.234 16.7124C14.5922 16.4237 13.2593 15.6436 12.499 14.7009ZM6.11986 14.8636C6.28104 14.0595 6.88481 13.3368 7.75936 12.9572L7.56165 14.0761C7.01057 14.2794 6.52006 14.5485 6.11986 14.8636ZM7.30705 9.19752C7.43285 9.90856 6.95678 10.5877 6.2428 10.7131L7.30705 9.19752Z" stroke="#D8BD77" stroke-width="0.5"/>
</g>
<defs>
<clipPath id="clip0_27_162">
<rect width="25" height="25" fill="white"/>
</clipPath>
</defs>
</svg>
